<?xml version="1.0" encoding="UTF-8"?>
<!DOCTYPE svg PUBLIC "-//W3C//DTD SVG 1.1//EN" "http://www.w3.org/Graphics/SVG/1.1/DTD/svg11.dtd">
<!-- Creator: CorelDRAW X6 -->
<svg xmlns="http://www.w3.org/2000/svg" xml:space="preserve" width="0.646874in" height="0.379598in" version="1.1" style="shape-rendering:geometricPrecision; text-rendering:geometricPrecision; image-rendering:optimizeQuality; fill-rule:evenodd; clip-rule:evenodd"
viewBox="0 0 647 380"
 xmlns:xlink="http://www.w3.org/1999/xlink">
 <defs>
  <style type="text/css">
   <![CDATA[
    .fil0 {fill:black;fill-rule:nonzero}
   ]]>
  </style>
 </defs>
 <g id="Money">
  <metadata id="CorelCorpID_0Corel-Layer"/>
  <path class="fil0" d="M593 0l-538 0c-30,0 -54,24 -54,54l0 271c0,30 24,54 54,54l538 0c30,0 54,-24 54,-54l0 -271c0,-30 -24,-54 -54,-54zm-551 347l0 0 0 -309 558 0 0 309 -558 0z"/>
  <path class="fil0" d="M96 292l450 0 0 -200 -450 0 0 200zm227 -174l0 0c41,0 74,33 74,74 0,41 -33,74 -74,74 -41,0 -74,-33 -74,-74 0,-41 33,-74 74,-74z"/>
 </g>
</svg>
