<?xml version="1.0" encoding="UTF-8"?>
<!DOCTYPE svg PUBLIC "-//W3C//DTD SVG 1.1//EN" "http://www.w3.org/Graphics/SVG/1.1/DTD/svg11.dtd">
<!-- Creator: CorelDRAW X6 -->
<svg xmlns="http://www.w3.org/2000/svg" xml:space="preserve" width="0.444055in" height="0.518063in" version="1.1" style="shape-rendering:geometricPrecision; text-rendering:geometricPrecision; image-rendering:optimizeQuality; fill-rule:evenodd; clip-rule:evenodd"
viewBox="0 0 444 518"
 xmlns:xlink="http://www.w3.org/1999/xlink">
 <defs>
  <style type="text/css">
   <![CDATA[
    .fil0 {fill:#231F1F;fill-rule:nonzero}
   ]]>
  </style>
 </defs>
 <g id="__x0023_Layer_x0020_1">
  <metadata id="CorelCorpID_0Corel-Layer"/>
  <path class="fil0" d="M222 518c123,0 222,-99 222,-222 -123,0 -222,99 -222,222zm-158 -290l0 0c0,34 28,62 62,62 13,0 25,-4 35,-11l0 5c0,34 28,62 62,62 34,0 62,-28 62,-62l-1 -5c10,7 22,11 35,11 34,0 62,-28 62,-62 0,-25 -14,-46 -35,-56 21,-10 35,-31 35,-56 0,-34 -28,-62 -62,-62 -13,0 -25,4 -35,11l1 -5c0,-34 -28,-62 -62,-62 -34,0 -62,28 -62,62l0 5c-10,-7 -22,-11 -35,-11 -34,0 -62,28 -62,62 0,25 14,46 35,56 -21,10 -35,31 -35,56zm158 -117l0 0c34,0 62,28 62,62 0,34 -28,62 -62,62 -34,0 -62,-28 -62,-62 0,-34 28,-62 62,-62zm-222 185l0 0c0,123 99,222 222,222 0,-123 -99,-222 -222,-222z"/>
 </g>
</svg>
